<?xml version="1.0" encoding="UTF-8"?>
<svg xmlns="http://www.w3.org/2000/svg" xmlns:xlink="http://www.w3.org/1999/xlink" width="20pt" height="20pt" viewBox="0 0 20 20" version="1.1">
<g id="surface1">
<path style=" stroke:none;fill-rule:nonzero;fill:rgb(0%,0%,0%);fill-opacity:1;" d="M 16.261719 2.742188 L 13.214844 2.742188 L 13.210938 0 L 6.769531 0.00390625 L 6.773438 2.746094 L 3.726562 2.746094 L 3.726562 5.308594 L 16.261719 5.308594 Z M 8.078125 1.308594 L 11.90625 1.304688 L 11.90625 2.742188 L 8.078125 2.746094 Z M 8.078125 1.308594 "/>
<path style=" stroke:none;fill-rule:nonzero;fill:rgb(0%,0%,0%);fill-opacity:1;" d="M 3.726562 19.984375 L 16.261719 19.984375 L 16.261719 5.960938 L 3.726562 5.960938 Z M 12.929688 7.875 L 13.585938 7.875 L 13.585938 18.070312 L 12.929688 18.070312 Z M 9.667969 7.875 L 10.320312 7.875 L 10.320312 18.070312 L 9.667969 18.070312 Z M 6.402344 7.875 L 7.054688 7.875 L 7.054688 18.070312 L 6.402344 18.070312 Z M 6.402344 7.875 "/>
</g>
</svg>
